<svg width="24" height="25" viewBox="0 0 24 25" fill="none" xmlns="http://www.w3.org/2000/svg">
<g clip-path="url(#clip0_720:3218)">
<path d="M23.8535 12.1462L16.3535 4.64622C16.1582 4.45089 15.8418 4.45089 15.6465 4.64622C15.4512 4.84155 15.4512 5.15796 15.6465 5.35324L22.293 11.9997H0.500016C0.223641 11.9997 0 12.2234 0 12.4998C0 12.7761 0.223641 12.9998 0.500016 12.9998H22.293L15.6465 19.6462C15.4512 19.8415 15.4512 20.158 15.6465 20.3532C15.7441 20.4509 15.8721 20.4997 16 20.4997C16.128 20.4997 16.2559 20.4509 16.3536 20.3532L23.8536 12.8532C24.0488 12.658 24.0488 12.3415 23.8535 12.1462Z" fill="#E3CD07"/>
</g>
<defs>
<clipPath id="clip0_720:3218">
<rect width="24" height="24" fill="white" transform="translate(0 0.5)"/>
</clipPath>
</defs>
</svg>
